<svg width="104" height="104" xmlns="http://www.w3.org/2000/svg" xmlns:xlink="http://www.w3.org/1999/xlink" overflow="hidden"><defs><clipPath id="clip0"><rect x="836" y="267" width="104" height="104"/></clipPath><clipPath id="clip1"><rect x="849" y="282" width="77" height="78"/></clipPath><clipPath id="clip2"><rect x="849" y="282" width="77" height="78"/></clipPath><clipPath id="clip3"><rect x="849" y="282" width="77" height="78"/></clipPath></defs><g clip-path="url(#clip0)" transform="translate(-836 -267)"><path d="M838.5 319.5C838.5 291.886 860.662 269.5 888 269.5 915.338 269.5 937.5 291.886 937.5 319.5 937.5 347.114 915.338 369.5 888 369.5 860.662 369.5 838.5 347.114 838.5 319.5Z" stroke="#C55A11" stroke-width="3" stroke-miterlimit="8" fill="none" fill-rule="evenodd"/><g clip-path="url(#clip1)"><g clip-path="url(#clip2)"><g clip-path="url(#clip3)"><path d="M50.3708 49.1677C50.7719 48.3656 50.5313 47.4031 49.7292 47.0021 48.9271 46.601 47.9646 46.8417 47.5635 47.6437L44.3552 53.3385 46.5208 44.7562C46.7615 43.874 46.2 42.9917 45.3177 42.8312 44.4354 42.5906 43.5531 43.1521 43.3927 44.0344L41.5479 51.4135 41.5479 43.3927C41.5479 42.5104 40.826 41.7885 39.9437 41.7885 39.0615 41.7885 38.3396 42.5104 38.3396 43.3927L38.3396 51.975 36.4948 44.0344C36.3344 43.1521 35.4521 42.6708 34.5698 42.8312 33.6875 42.9917 33.2062 43.874 33.3667 44.7562L35.6125 54.301C35.5323 55.424 35.2917 56.5469 35.051 57.5094 35.051 57.5094 35.051 57.4292 34.9708 57.4292 33.6073 55.3438 31.4417 53.499 29.3562 52.9375 28.5542 52.6969 27.7521 53.1781 27.5115 53.9802 27.2708 54.7823 27.7521 55.5844 28.5542 55.825 29.5969 56.0656 30.5594 57.5896 31.6021 59.1938 32.8854 61.199 34.4896 63.525 36.8958 64.8885L36.8958 73.4708 43.9542 73.4708 43.9542 64.4073C46.601 63.0437 46.9219 57.349 47.0021 55.1833L50.3708 49.1677Z" stroke="#C55A11" stroke-width="1.33334" fill="none" transform="matrix(1 0 -0 1.01299 849 282)"/><path d="M22.0573 49.8094 29.0354 49.8896C29.0354 49.8896 29.0354 49.8896 29.0354 49.8896 29.9177 49.8896 30.6396 49.1677 30.6396 48.2854 30.6396 47.4031 29.9177 46.6812 29.0354 46.6812L22.5385 46.601 31.0406 44.4354C31.9229 44.1948 32.4042 43.3125 32.1635 42.5104 31.9229 41.6281 31.0406 41.1469 30.2385 41.3875L22.8594 43.3125 29.9177 39.4625C30.7198 39.0615 30.9604 38.099 30.5594 37.2969 30.1583 36.4948 29.1958 36.2542 28.3938 36.6552L20.8542 40.6656 26.95 35.2917C27.5917 34.7302 27.6719 33.6875 27.1104 33.0458 26.549 32.4042 25.5062 32.324 24.8646 32.8854L17.4854 39.3021C16.4427 39.7833 15.4 40.1042 14.3573 40.2646 14.3573 40.2646 14.3573 40.1844 14.4375 40.1844 15.6406 37.9385 16.2021 35.2115 15.7208 33.126 15.5604 32.324 14.6781 31.8427 13.876 32.0031 13.074 32.1635 12.5927 33.0458 12.7531 33.8479 12.9938 34.8906 12.1917 36.4146 11.3094 38.099 10.1865 40.1844 8.90312 42.6708 8.82292 45.4781L1.28333 49.5687 4.65208 55.7448 12.5927 51.4937C14.999 53.1781 20.1323 50.7719 22.0573 49.8094Z" stroke="#C55A11" stroke-width="1.33334" fill="none" transform="matrix(1 0 -0 1.01299 849 282)"/><path d="M22.9396 23.6615 24.624 30.399C24.7844 31.1208 25.426 31.6021 26.1479 31.6021 26.3083 31.6021 26.3885 31.6021 26.549 31.5219 27.4312 31.2813 27.9125 30.4792 27.7521 29.5969L26.2281 23.2604 30.4792 30.8802C30.8 31.4417 31.2813 31.6823 31.9229 31.6823 32.1635 31.6823 32.4844 31.6021 32.725 31.4417 33.5271 31.0406 33.7677 29.9979 33.3667 29.276L29.6771 22.6187 35.1312 28.474C35.4521 28.7948 35.8531 28.9552 36.3344 28.9552 36.7354 28.9552 37.1365 28.7948 37.4573 28.5542 38.099 27.9125 38.099 26.95 37.5375 26.3083L31.6823 20.0521 38.5 24.624C38.7406 24.7844 39.0615 24.8646 39.3823 24.8646 39.8635 24.8646 40.425 24.624 40.7458 24.1427 41.2271 23.4208 41.0667 22.3781 40.3448 21.8969L32.1635 16.4427C31.4417 15.5604 30.8802 14.5979 30.399 13.7156 30.399 13.7156 30.4792 13.7156 30.4792 13.7156 32.8854 14.2771 35.6927 14.1969 37.6177 13.1542 38.3396 12.7531 38.5802 11.8708 38.1792 11.149 37.7781 10.4271 36.8958 10.1865 36.174 10.5875 35.2917 11.0687 33.5271 10.6677 31.6823 10.2667 29.3562 9.70521 26.6292 9.06354 23.9021 9.78542L18.0469 3.52917 12.9135 8.34167 19.0896 14.9187C17.8062 17.726 21.4156 22.1375 22.9396 23.6615Z" stroke="#C55A11" stroke-width="1.33334" fill="none" transform="matrix(1 0 -0 1.01299 849 282)"/><path d="M75.7167 55.1833 69.6208 48.526C70.6635 45.7188 67.0542 41.3073 65.6104 39.7031L64.0062 32.9656C63.7656 32.0833 62.9635 31.6021 62.0812 31.7625 61.199 32.0031 60.7177 32.8052 60.8781 33.6875L62.4021 40.024 58.151 32.324C57.75 31.5219 56.7875 31.2813 55.9854 31.6823 55.1833 32.0833 54.9427 33.0458 55.3438 33.8479L59.0333 40.5854 53.5792 34.7302C52.9375 34.0885 51.975 34.0083 51.3333 34.65 50.6917 35.2917 50.6115 36.2542 51.2531 36.8958L57.1083 43.2323 50.3708 38.6604C49.649 38.1792 48.6062 38.3396 48.125 39.0615 47.6437 39.7833 47.8042 40.826 48.526 41.3073L56.6271 46.8417C57.349 47.724 57.9104 48.6865 58.3917 49.5687 58.3917 49.5687 58.3115 49.5687 58.3115 49.5687 55.9052 49.0073 53.0979 49.0875 51.1729 50.1302 50.451 50.5313 50.1302 51.4135 50.5313 52.1354 50.9323 52.8573 51.8146 53.1781 52.5365 52.7771 53.4187 52.2958 55.1833 52.6969 57.0281 53.1781 59.3542 53.7396 62.0812 54.3813 64.8083 53.7396L70.5833 59.9958 75.7167 55.1833Z" stroke="#C55A11" stroke-width="1.33334" fill="none" transform="matrix(1 0 -0 1.01299 849 282)"/><path d="M42.751 20.8542C42.9115 20.8542 43.0719 20.8542 43.3125 20.774L49.4083 18.6083 42.1896 23.5812C41.4677 24.0625 41.3073 25.1052 41.7885 25.8271 42.1094 26.3083 42.5906 26.549 43.0719 26.549 43.3927 26.549 43.7135 26.4688 43.9542 26.2281L50.2104 21.8969 44.9167 27.9125C44.3552 28.5542 44.4354 29.5969 45.0771 30.1583 45.3979 30.399 45.7188 30.5594 46.1198 30.5594 46.601 30.5594 47.0021 30.399 47.3229 29.9979L53.0177 23.501 49.1677 30.7198C48.7667 31.5219 49.0073 32.4844 49.8094 32.8854 50.05 33.0458 50.2906 33.0458 50.5313 33.0458 51.0927 33.0458 51.6542 32.725 51.975 32.1635L56.6271 23.501C57.4292 22.699 58.3115 22.0573 59.1938 21.4958 59.1938 21.4958 59.1938 21.576 59.1938 21.576 58.8729 24.0625 59.274 26.8698 60.4771 28.6344 60.9583 29.3562 61.8406 29.5167 62.5625 29.0354 63.2844 28.5542 63.4448 27.6719 62.9635 26.95 62.4021 26.0677 62.6427 24.3031 62.8833 22.3781 63.2042 20.0521 63.525 17.2448 62.6427 14.5979L68.2573 8.18125 62.9635 3.52917 57.0281 10.3469C54.1406 9.625 50.1302 13.7156 48.6865 15.2396L42.1094 17.5656C41.3073 17.8865 40.826 18.7687 41.1469 19.651 41.4677 20.4531 42.1094 20.8542 42.751 20.8542Z" stroke="#C55A11" stroke-width="1.33334" fill="none" transform="matrix(1 0 -0 1.01299 849 282)"/></g></g></g></g></svg>