<svg width="104" height="104" xmlns="http://www.w3.org/2000/svg" xmlns:xlink="http://www.w3.org/1999/xlink" overflow="hidden"><defs><clipPath id="clip0"><rect x="1071" y="267" width="104" height="104"/></clipPath><clipPath id="clip1"><rect x="1088" y="285" width="70" height="70"/></clipPath><clipPath id="clip2"><rect x="1088" y="285" width="70" height="70"/></clipPath><clipPath id="clip3"><rect x="1088" y="285" width="70" height="70"/></clipPath></defs><g clip-path="url(#clip0)" transform="translate(-1071 -267)"><path d="M1073.5 319.5C1073.5 291.886 1095.89 269.5 1123.5 269.5 1151.11 269.5 1173.5 291.886 1173.5 319.5 1173.5 347.114 1151.11 369.5 1123.5 369.5 1095.89 369.5 1073.5 347.114 1073.5 319.5Z" stroke="#C55A11" stroke-width="3" stroke-miterlimit="8" fill="none" fill-rule="evenodd"/><g clip-path="url(#clip1)"><g clip-path="url(#clip2)"><g clip-path="url(#clip3)"><path d="M1129.18 339.536 1116.63 339.536C1115.47 339.536 1114.53 340.477 1114.53 341.637 1114.53 342.798 1115.47 343.739 1116.63 343.739L1129.18 343.739C1130.34 343.739 1131.28 342.798 1131.28 341.637 1131.28 340.477 1130.34 339.536 1129.18 339.536Z" stroke="#C55A11" stroke-width="0.729167" fill="#C55A11"/><path d="M1122.9 350.864C1125.29 350.864 1127.27 349.031 1127.45 346.655L1118.35 346.655C1118.54 349.031 1120.52 350.864 1122.9 350.864Z" stroke="#C55A11" stroke-width="0.729167" fill="#C55A11"/><path d="M1141.11 317.429 1141.11 316.799C1140.93 306.853 1132.85 298.866 1122.9 298.799L1122.9 298.799C1112.95 298.865 1104.87 306.852 1104.69 316.799L1104.69 317.429C1104.76 319.586 1105.19 321.717 1105.96 323.733 1106.7 325.635 1107.77 327.39 1109.12 328.916 1110.79 330.738 1112.62 334.273 1113.39 335.843 1113.63 336.319 1114.11 336.62 1114.64 336.62L1131.16 336.62C1131.69 336.62 1132.18 336.319 1132.41 335.843 1133.18 334.274 1135.01 330.738 1136.68 328.916 1138.03 327.39 1139.11 325.635 1139.84 323.733 1140.61 321.717 1141.04 319.586 1141.11 317.429ZM1136.91 317.356C1136.85 319.035 1136.51 320.692 1135.91 322.26 1135.35 323.674 1134.55 324.978 1133.54 326.113 1131.93 328.048 1130.56 330.163 1129.44 332.416L1116.36 332.416C1115.24 330.163 1113.87 328.048 1112.26 326.113 1111.25 324.979 1110.45 323.674 1109.89 322.26 1109.29 320.692 1108.96 319.036 1108.89 317.358L1108.89 316.832C1109.03 309.184 1115.25 303.046 1122.9 303.001L1122.9 303.001C1130.55 303.045 1136.77 309.185 1136.91 316.834Z" stroke="#C55A11" stroke-width="0.729167" fill="#C55A11"/><path d="M1123.05 295.938C1123.85 295.938 1124.5 295.285 1124.5 294.479L1124.5 289.375C1124.5 288.57 1123.85 287.917 1123.05 287.917 1122.24 287.917 1121.59 288.57 1121.59 289.375L1121.59 294.479C1121.59 295.285 1122.24 295.938 1123.05 295.938Z" stroke="#C55A11" stroke-width="0.729167" fill="#C55A11"/><path d="M1105.74 302.354C1106.3 302.934 1107.22 302.95 1107.8 302.39 1108.38 301.83 1108.4 300.907 1107.84 300.328 1107.82 300.316 1107.81 300.304 1107.8 300.292L1104.19 296.68C1103.61 296.12 1102.68 296.136 1102.13 296.716 1101.58 297.281 1101.58 298.177 1102.13 298.742Z" stroke="#C55A11" stroke-width="0.729167" fill="#C55A11"/><path d="M1139.34 303.055C1139.73 303.055 1140.1 302.901 1140.37 302.628L1143.98 299.018C1144.53 298.428 1144.49 297.505 1143.9 296.957 1143.34 296.438 1142.48 296.438 1141.92 296.958L1138.31 300.566C1137.74 301.135 1137.74 302.059 1138.31 302.628 1138.59 302.901 1138.96 303.055 1139.34 303.055Z" stroke="#C55A11" stroke-width="0.729167" fill="#C55A11"/><path d="M1100.4 315.26 1095.29 315.26C1094.49 315.26 1093.83 315.913 1093.83 316.719 1093.83 317.524 1094.49 318.177 1095.29 318.177L1100.4 318.177C1101.2 318.177 1101.85 317.524 1101.85 316.719 1101.85 315.913 1101.2 315.26 1100.4 315.26Z" stroke="#C55A11" stroke-width="0.729167" fill="#C55A11"/><path d="M1105.74 331.037 1102.13 334.646C1101.54 335.191 1101.5 336.114 1102.04 336.707 1102.59 337.3 1103.51 337.339 1104.1 336.794 1104.13 336.766 1104.16 336.738 1104.19 336.708L1107.8 333.099C1108.38 332.539 1108.39 331.616 1107.83 331.037 1107.27 330.457 1106.35 330.441 1105.77 331.001 1105.76 331.013 1105.75 331.024 1105.73 331.037Z" stroke="#C55A11" stroke-width="0.729167" fill="#C55A11"/><path d="M1140.37 330.76C1139.82 330.171 1138.9 330.137 1138.31 330.685 1137.72 331.234 1137.69 332.156 1138.24 332.746 1138.26 332.773 1138.29 332.798 1138.31 332.822L1141.92 336.431C1142.5 336.991 1143.42 336.975 1143.98 336.395 1144.53 335.83 1144.53 334.934 1143.98 334.369Z" stroke="#C55A11" stroke-width="0.729167" fill="#C55A11"/><path d="M1150.53 315.211 1145.42 315.211C1144.62 315.211 1143.96 315.864 1143.96 316.669 1143.96 317.475 1144.62 318.128 1145.42 318.128L1150.53 318.128C1151.33 318.128 1151.98 317.475 1151.98 316.669 1151.98 315.864 1151.33 315.211 1150.53 315.211Z" stroke="#C55A11" stroke-width="0.729167" fill="#C55A11"/></g></g></g></g></svg>