<svg width="104" height="104" xmlns="http://www.w3.org/2000/svg" xmlns:xlink="http://www.w3.org/1999/xlink" overflow="hidden"><defs><clipPath id="clip0"><rect x="365" y="267" width="104" height="104"/></clipPath><clipPath id="clip1"><rect x="385" y="286" width="68" height="68"/></clipPath><clipPath id="clip2"><rect x="385" y="286" width="68" height="68"/></clipPath><clipPath id="clip3"><rect x="385" y="286" width="68" height="68"/></clipPath></defs><g clip-path="url(#clip0)" transform="translate(-365 -267)"><path d="M367.5 319.5C367.5 291.886 389.886 269.5 417.5 269.5 445.114 269.5 467.5 291.886 467.5 319.5 467.5 347.114 445.114 369.5 417.5 369.5 389.886 369.5 367.5 347.114 367.5 319.5Z" stroke="#C55A11" stroke-width="3" stroke-miterlimit="8" fill="none" fill-rule="evenodd"/><g clip-path="url(#clip1)"><g clip-path="url(#clip2)"><g clip-path="url(#clip3)"><path d="M434.583 324.25 428.344 324.25C429.521 322.219 428.828 319.619 426.797 318.442 424.766 317.266 422.165 317.959 420.989 319.99 420.226 321.307 420.226 322.932 420.989 324.25L414.75 324.25 414.75 317.4C414.75 317.008 414.433 316.691 414.042 316.691 413.819 316.691 413.609 316.796 413.475 316.975 412.406 318.4 410.384 318.69 408.958 317.621 407.532 316.552 407.243 314.529 408.312 313.104 409.381 311.678 411.403 311.389 412.829 312.458 413.074 312.641 413.291 312.859 413.475 313.104 413.71 313.417 414.154 313.48 414.467 313.245 414.645 313.112 414.75 312.902 414.75 312.679L414.75 305.125C414.75 304.734 414.433 304.417 414.042 304.417L393.5 304.417C393.109 304.417 392.792 304.734 392.792 305.125L392.792 344.792C392.792 345.183 393.109 345.5 393.5 345.5L434.559 345.5C434.95 345.5 435.267 345.183 435.267 344.792L435.292 324.958C435.292 324.567 434.975 324.25 434.583 324.25ZM394.208 305.833 413.333 305.833 413.333 311.093C411.153 309.743 408.291 310.416 406.941 312.596 405.591 314.777 406.264 317.638 408.444 318.988 409.942 319.916 411.836 319.916 413.333 318.988L413.333 324.25 406.024 324.25C405.633 324.25 405.316 324.567 405.316 324.958 405.316 325.181 405.421 325.391 405.599 325.525 406.419 326.115 406.904 327.065 406.902 328.075 406.902 329.875 405.444 331.333 403.644 331.333 401.845 331.333 400.386 329.875 400.386 328.075 400.384 327.064 400.869 326.115 401.69 325.525 402.003 325.29 402.066 324.846 401.831 324.533 401.698 324.355 401.488 324.25 401.265 324.25L394.208 324.25ZM413.333 344.083 394.208 344.083 394.208 325.667 399.663 325.667C399.209 326.388 398.969 327.223 398.97 328.075 398.97 330.657 401.064 332.75 403.645 332.75 406.227 332.75 408.32 330.657 408.32 328.075 408.322 327.223 408.083 326.388 407.629 325.667L413.333 325.667 413.333 332.448C413.333 332.839 413.65 333.157 414.041 333.157 414.269 333.157 414.482 333.048 414.615 332.864 415 332.324 415.548 331.923 416.178 331.718 417.853 331.111 419.703 331.976 420.31 333.651 420.917 335.326 420.052 337.176 418.377 337.783 418.309 337.808 418.241 337.83 418.171 337.85L418.112 337.874C418.052 337.893 417.992 337.917 417.931 337.945L417.88 337.965C417.839 337.968 417.798 337.975 417.758 337.986 416.756 338.246 415.69 337.973 414.937 337.263 414.895 337.22 414.839 337.163 414.776 337.104 414.724 337.055 414.666 337.002 414.628 336.962 414.495 336.771 414.276 336.656 414.042 336.656 413.65 336.656 413.333 336.973 413.333 337.364L413.333 344.083ZM433.851 344.083 414.75 344.083 414.75 338.883C415.745 339.47 416.928 339.645 418.05 339.373 418.197 339.355 418.34 339.314 418.475 339.253L418.651 339.182C421.086 338.377 422.406 335.751 421.601 333.317 420.796 330.883 418.17 329.562 415.736 330.367 415.392 330.481 415.063 330.634 414.756 330.824L414.756 325.667 422.542 325.667C422.933 325.667 423.25 325.35 423.25 324.958 423.25 324.735 423.145 324.525 422.967 324.392 421.715 323.453 421.461 321.677 422.4 320.425 423.339 319.173 425.115 318.919 426.367 319.858 427.618 320.797 427.872 322.573 426.933 323.825 426.772 324.04 426.581 324.231 426.367 324.392 426.054 324.626 425.99 325.07 426.225 325.383 426.359 325.562 426.569 325.667 426.792 325.667L433.875 325.667Z" stroke="#C55A11" stroke-width="0.708369" fill="#C55A11"/><path d="M445.427 301.313C445.354 301.14 445.216 301.003 445.043 300.931L427.871 293.848C427.509 293.699 427.095 293.871 426.946 294.232 426.946 294.233 426.946 294.233 426.946 294.233L424.815 299.414C423.375 297.57 420.713 297.242 418.869 298.682 417.025 300.122 416.698 302.783 418.137 304.627 418.624 305.25 419.275 305.725 420.016 305.997 420.662 306.237 421.359 306.304 422.039 306.189L419.872 311.324C419.72 311.685 419.889 312.1 420.25 312.252 420.252 312.253 420.255 312.254 420.257 312.255L426.434 314.774C426.796 314.921 427.21 314.747 427.357 314.385 427.44 314.18 427.423 313.949 427.312 313.759 426.834 312.947 426.807 311.946 427.241 311.11 427.908 309.458 429.789 308.659 431.441 309.327 433.093 309.994 433.891 311.875 433.224 313.527 433.214 313.55 433.205 313.573 433.195 313.596 432.926 314.504 432.214 315.213 431.306 315.481 430.926 315.574 430.693 315.957 430.786 316.337 430.84 316.559 430.998 316.742 431.211 316.827L437.424 319.362C437.786 319.512 438.2 319.341 438.35 318.979 438.35 318.979 438.35 318.979 438.35 318.979L445.427 301.853C445.498 301.68 445.498 301.486 445.427 301.313ZM437.31 317.787 433.157 316.087C433.755 315.555 434.216 314.887 434.503 314.139 435.426 311.746 434.234 309.058 431.841 308.135 429.448 307.212 426.76 308.404 425.837 310.797 425.582 311.459 425.481 312.172 425.544 312.879L421.457 311.212 423.994 305.198C424.146 304.837 423.977 304.422 423.616 304.27 423.401 304.18 423.154 304.201 422.957 304.328 422.243 304.828 421.331 304.954 420.508 304.666 419.04 304.124 418.289 302.494 418.831 301.026 419.373 299.558 421.003 298.807 422.471 299.349 423.32 299.692 423.964 300.406 424.217 301.287 424.329 301.661 424.724 301.874 425.098 301.762 425.303 301.701 425.469 301.551 425.551 301.353L427.989 295.425 443.85 301.97Z" stroke="#C55A11" stroke-width="0.708369" fill="#C55A11"/></g></g></g></g></svg>