<svg width="104" height="104" xmlns="http://www.w3.org/2000/svg" xmlns:xlink="http://www.w3.org/1999/xlink" overflow="hidden"><defs><clipPath id="clip0"><rect x="600" y="267" width="104" height="104"/></clipPath><clipPath id="clip1"><rect x="618" y="285" width="68" height="68"/></clipPath><clipPath id="clip2"><rect x="618" y="285" width="68" height="68"/></clipPath><clipPath id="clip3"><rect x="618" y="285" width="68" height="68"/></clipPath></defs><g clip-path="url(#clip0)" transform="translate(-600 -267)"><path d="M602.5 319.5C602.5 291.886 624.886 269.5 652.5 269.5 680.114 269.5 702.5 291.886 702.5 319.5 702.5 347.114 680.114 369.5 652.5 369.5 624.886 369.5 602.5 347.114 602.5 319.5Z" stroke="#C55A11" stroke-width="3" stroke-miterlimit="8" fill="none" fill-rule="evenodd"/><g clip-path="url(#clip1)"><g clip-path="url(#clip2)"><g clip-path="url(#clip3)"><path d="M674.044 322.456C673.2 321.641 671.855 321.664 671.039 322.508 670.244 323.332 670.244 324.637 671.039 325.461L677.329 331.75 669.201 331.75C666.006 331.758 662.94 330.489 660.687 328.223L653.467 321.004 650.461 324.008 657.682 331.229C660.73 334.293 664.878 336.012 669.201 336L677.329 336 671.039 342.289C670.195 343.105 670.172 344.45 670.987 345.294 671.802 346.138 673.148 346.162 673.992 345.346 674.01 345.329 674.027 345.312 674.044 345.294L683.961 335.377C684.79 334.548 684.79 333.202 683.961 332.373Z" stroke="#C55A11" stroke-width="0.708369" fill="#C55A11"/><path d="M621.542 306.25 627.716 306.25C630.911 306.242 633.976 307.511 636.23 309.777L643.45 316.996 646.455 313.992 639.235 306.771C636.186 303.707 632.038 301.988 627.716 302L621.542 302C620.368 302 619.417 302.951 619.417 304.125 619.417 305.299 620.368 306.25 621.542 306.25Z" stroke="#C55A11" stroke-width="0.708369" fill="#C55A11"/><path d="M669.201 306.25 677.329 306.25 671.039 312.539C670.195 313.355 670.172 314.7 670.987 315.544 671.802 316.388 673.148 316.412 673.992 315.596 674.01 315.579 674.027 315.562 674.044 315.544L683.961 305.627C684.79 304.798 684.79 303.452 683.961 302.623L674.044 292.706C673.2 291.891 671.855 291.914 671.039 292.758 670.244 293.582 670.244 294.887 671.039 295.711L677.329 302 669.201 302C664.878 301.988 660.73 303.707 657.682 306.771L636.23 328.223C633.976 330.489 630.911 331.758 627.716 331.75L621.542 331.75C620.368 331.75 619.417 332.701 619.417 333.875 619.417 335.049 620.368 336 621.542 336L627.716 336C632.038 336.012 636.186 334.293 639.235 331.229L660.687 309.777C662.94 307.511 666.006 306.242 669.201 306.25Z" stroke="#C55A11" stroke-width="0.708369" fill="#C55A11"/></g></g></g></g></svg>